<?xml version="1.0" encoding="UTF-8"?>
<svg version="1.1" xmlns="http://www.w3.org/2000/svg" width="178" height="57">
<path d="M0 0 C58.74 0 117.48 0 178 0 C178 18.81 178 37.62 178 57 C119.26 57 60.52 57 0 57 C0 38.19 0 19.38 0 0 Z " fill="#3E355E" transform="translate(0,0)"/>
<path d="M0 0 C58.74 0 117.48 0 178 0 C178 18.81 178 37.62 178 57 C119.26 57 60.52 57 0 57 C0 38.19 0 19.38 0 0 Z M47 9.875 C46.0925 10.53242188 45.185 11.18984375 44.25 11.8671875 C41.84686386 14.1451603 40.96133585 15.86473421 40 19 C38.9275 18.938125 37.855 18.87625 36.75 18.8125 C32.89133813 19.00543309 31.71182212 19.39665076 29 22 C28.484375 21.505 27.96875 21.01 27.4375 20.5 C24.06236872 18.42299614 21.90199054 18.52080818 18 19 C15.24670979 20.79562405 13.47372539 22.05254922 12 25 C11.44641641 29.05961302 11.87227989 30.77751981 13.9375 34.375 C15.69877293 36.30785826 16.63678042 36.93320831 19.23046875 37.41015625 C22.79521505 37.45086298 25.60377177 37.13207608 29 36 C30.67540664 36.64438717 32.34183216 37.31246699 34 38 C35.32 38 36.64 38 38 38 C37.896875 38.86625 37.79375 39.7325 37.6875 40.625 C38.01756707 44.18972431 38.82045648 45.98032456 41.24609375 48.61328125 C48.97368868 54.72307234 58.89655746 55.1696606 68.3125 55.125 C69.5180957 55.13080078 69.5180957 55.13080078 70.74804688 55.13671875 C75.46076263 55.12913594 80.02332285 54.81280496 84.69799805 54.23632812 C87.99557098 53.89779269 91.28608574 53.84207967 94.59838867 53.76098633 C108.41012384 53.37821013 122.23761091 51.3576598 132.69140625 41.38671875 C134.76228074 39.00904804 135.99937095 37.00188714 137 34 C137.495 35.485 137.495 35.485 138 37 C139.98 37 141.96 37 144 37 C144.33 36.34 144.66 35.68 145 35 C145.66 35.66 146.32 36.32 147 37 C148.93681136 37.27654388 148.93681136 37.27654388 151.1328125 37.1953125 C151.93847656 37.18886719 152.74414062 37.18242188 153.57421875 37.17578125 C154.41597656 37.15902344 155.25773438 37.14226563 156.125 37.125 C156.97449219 37.11597656 157.82398438 37.10695312 158.69921875 37.09765625 C160.79959884 37.07405647 162.89983444 37.03818483 165 37 C164.91621094 36.21753906 164.83242187 35.43507812 164.74609375 34.62890625 C164.59333984 33.11103516 164.59333984 33.11103516 164.4375 31.5625 C164.33308594 30.55316406 164.22867188 29.54382813 164.12109375 28.50390625 C164.08113281 27.67761719 164.04117188 26.85132812 164 26 C164.33 25.67 164.66 25.34 165 25 C165 23.02 165 21.04 165 19 C160.71 19 156.42 19 152 19 C151.67 19.66 151.34 20.32 151 21 C150.01 20.34 149.02 19.68 148 19 C145.48415109 18.75849227 145.48415109 18.75849227 142.8125 18.875 C141.46091797 18.90207031 141.46091797 18.90207031 140.08203125 18.9296875 C139.05142578 18.96449219 139.05142578 18.96449219 138 19 C137.505 20.485 137.505 20.485 137 22 C136.93683594 21.34773438 136.87367188 20.69546875 136.80859375 20.0234375 C136.15183267 15.33623735 135.52055397 11.83867203 131.9375 8.5625 C123.92515084 2.97037307 115.75932312 2.55107626 106.22265625 2.6015625 C105.016129 2.59869232 103.80960175 2.59582214 102.56651306 2.59286499 C100.02586393 2.5908319 97.48519888 2.5963086 94.94458008 2.60888672 C91.07792781 2.62493596 87.21232299 2.60901829 83.34570312 2.58984375 C80.86718521 2.59182659 78.38866795 2.5956711 75.91015625 2.6015625 C74.19252831 2.59245346 74.19252831 2.59245346 72.44020081 2.5831604 C62.92914898 2.66557252 54.76124315 4.07662939 47 9.875 Z " fill="#FDF8F3" transform="translate(0,0)"/>
<path d="M0 0 C4.17804622 3.61344538 4.17804622 3.61344538 5.3125 5 C5.3125 5.66 5.3125 6.32 5.3125 7 C6.6325 7.33 7.9525 7.66 9.3125 8 C8.219375 8.268125 7.12625 8.53625 6 8.8125 C1.94311385 10.04980293 1.94311385 10.04980293 -0.6875 13 C-0.71056739 15.51723703 -0.71056739 15.51723703 -0.3125 18.25 C-0.22687701 21.66590655 -0.19738099 23.35843302 -2.29296875 26.1015625 C-13.00217438 34.70683569 -28.87437865 40.89123565 -42.66015625 40.265625 C-45.24676797 39.92672404 -47.31183565 39.06904896 -49.6875 38 C-51.24667525 37.71063955 -52.80980533 37.44229913 -54.375 37.1875 C-61.18186437 35.8851403 -67.41365873 33.44437936 -72.1875 28.3125 C-72.6825 27.549375 -73.1775 26.78625 -73.6875 26 C-74.3475 25.34 -75.0075 24.68 -75.6875 24 C-76.0175 23.01 -76.3475 22.02 -76.6875 21 C-73.875 20.8125 -73.875 20.8125 -70.6875 21 C-68.98828125 22.51171875 -68.98828125 22.51171875 -67.6875 24 C-67.98785156 23.32453125 -68.28820312 22.6490625 -68.59765625 21.953125 C-68.97792969 21.06109375 -69.35820313 20.1690625 -69.75 19.25 C-70.32427734 17.92742188 -70.32427734 17.92742188 -70.91015625 16.578125 C-71.75702681 13.76940858 -71.78514469 12.67758781 -70.6875 10 C-65.9057922 2.11282883 -57.33177145 -1.69486095 -48.6875 -4 C-34.33174262 -6.5825172 -12.84836832 -8.04958015 0 0 Z " fill="#180B3F" transform="translate(122.6875,12)"/>
<path d="M0 0 C4.27059561 -0.11765973 8.54076597 -0.18773631 12.8125 -0.25 C14.00810547 -0.28351563 15.20371094 -0.31703125 16.43554688 -0.3515625 C24.83671634 -0.44312838 33.25349319 0.14399838 40.0300293 5.64916992 C44.07641034 9.71041598 44.80287326 13.38188804 45 19 C45.495 17.515 45.495 17.515 46 16 C47.60379341 15.94583812 49.20811406 15.90713362 50.8125 15.875 C51.70582031 15.85179687 52.59914062 15.82859375 53.51953125 15.8046875 C56 16 56 16 59 18 C59.33 17.34 59.66 16.68 60 16 C64.29 16 68.58 16 73 16 C73 17.98 73 19.96 73 22 C72.505 22.495 72.505 22.495 72 23 C72.08984301 24.85772162 72.24611861 26.71247985 72.4375 28.5625 C72.59025391 30.08037109 72.59025391 30.08037109 72.74609375 31.62890625 C72.82988281 32.41136719 72.91367188 33.19382813 73 34 C70.04142591 34.05379226 67.08382279 34.09357093 64.125 34.125 C63.28324219 34.14175781 62.44148438 34.15851562 61.57421875 34.17578125 C60.76855469 34.18222656 59.96289062 34.18867187 59.1328125 34.1953125 C58.38918457 34.20578613 57.64555664 34.21625977 56.87939453 34.22705078 C55 34 55 34 53 32 C52.505 32.99 52.505 32.99 52 34 C50.02 34 48.04 34 46 34 C45.67 33.01 45.34 32.02 45 31 C44.608125 31.721875 44.21625 32.44375 43.8125 33.1875 C38.14767483 41.97774595 29.67867567 46.40648262 19.875 49.28515625 C12.31145506 50.6804473 4.65711546 50.29108359 -3 50 C-3.33 49.34 -3.66 48.68 -4 48 C-2.90042969 47.70867188 -1.80085938 47.41734375 -0.66796875 47.1171875 C8.22095866 44.68350631 16.1506465 41.97078916 24 37 C25.051875 36.443125 26.10375 35.88625 27.1875 35.3125 C29.47412232 32.39508531 29.0855263 31.25290677 28.875 27.625 C28.58948993 22.54699946 28.58948993 22.54699946 30.5390625 19.94921875 C32.29850284 18.48068189 34.04003126 17.1849811 36 16 C30.0328435 6.94638324 19.45226936 5.69992023 9.4831543 3.39404297 C6.05945854 2.59080264 3.10164996 1.64032427 0 0 Z " fill="#342856" transform="translate(92,3)"/>
<path d="M0 0 C1.27576904 0.00322266 2.55153809 0.00644531 3.8659668 0.00976562 C13.38994505 0.15020692 21.88124686 1.26490047 30.875 4.4375 C27.82321433 5.45476189 25.86945898 5.5266487 22.68359375 5.46484375 C21.65556641 5.45259766 20.62753906 5.44035156 19.56835938 5.42773438 C17.42505537 5.39301979 15.28181512 5.35406917 13.13867188 5.31054688 C-1.83400192 5.15235206 -13.68437193 8.59966523 -25.125 18.4375 C-25.455 17.7775 -25.785 17.1175 -26.125 16.4375 C-27.445 16.4375 -28.765 16.4375 -30.125 16.4375 C-31.115 19.4075 -32.105 22.3775 -33.125 25.4375 C-36.70075896 25.4375 -38.17795935 24.34909393 -41.125 22.4375 C-39.125 21.4375 -39.125 21.4375 -36.125 21.4375 C-35.795 20.1175 -35.465 18.7975 -35.125 17.4375 C-35.785 17.4375 -36.445 17.4375 -37.125 17.4375 C-36.58033254 12.53549282 -33.13925583 10.17498786 -29.58984375 7.11328125 C-20.83978268 0.2249353 -10.74975726 -0.08414134 0 0 Z " fill="#EC6062" transform="translate(77.125,2.5625)"/>
<path d="M0 0 C1.75409079 1.75409079 3.43343154 3.49910298 5.0625 5.375 C11.42142548 11.05744405 18.39733507 13.45416691 26.75 14.640625 C29 15 29 15 31 16 C32.87056791 16.2275015 34.74685958 16.40962811 36.625 16.5625 C37.62789062 16.64628906 38.63078125 16.73007812 39.6640625 16.81640625 C40.43492188 16.87699219 41.20578125 16.93757813 42 17 C37.09622372 21.90377628 25.80764274 20.24839104 19.18676758 20.25097656 C8.89698385 20.11829595 -0.39074694 18.60925306 -7.875 11.125 C-9.35931979 8.32128484 -9.21293182 6.12299996 -9 3 C-10.32 2.67 -11.64 2.34 -13 2 C-12.14535156 1.93941406 -11.29070313 1.87882812 -10.41015625 1.81640625 C-8.75306641 1.69072266 -8.75306641 1.69072266 -7.0625 1.5625 C-5.96035156 1.48128906 -4.85820313 1.40007813 -3.72265625 1.31640625 C-1.08890097 1.29581916 -1.08890097 1.29581916 0 0 Z " fill="#D9D578" transform="translate(47,35)"/>
<path d="M0 0 C0.99 0.33 1.98 0.66 3 1 C4.95677555 1.15754704 4.95677555 1.15754704 7 1.125 C8.0209375 1.12886719 8.0209375 1.12886719 9.0625 1.1328125 C11.21874781 1.06631126 11.21874781 1.06631126 14 0 C10.86697024 7.69016397 3.53491798 12.00748254 -3.73828125 15.203125 C-13.43358173 18.70181031 -22.85229655 18.38576275 -33 18 C-33.33 17.34 -33.66 16.68 -34 16 C-32.90042969 15.70867188 -31.80085938 15.41734375 -30.66796875 15.1171875 C-20.36517757 12.29725508 -10.68669067 9.2532429 -2.5 2.0625 C-1.675 1.381875 -0.85 0.70125 0 0 Z " fill="#BC5DC6" transform="translate(122,35)"/>
<path d="M0 0 C4.27059561 -0.11765973 8.54076597 -0.18773631 12.8125 -0.25 C14.00810547 -0.28351563 15.20371094 -0.31703125 16.43554688 -0.3515625 C24.85297741 -0.44330561 33.20118804 0.17537861 40.0300293 5.61791992 C43.85828706 9.38523497 44.72821891 13.00677093 44.9921875 18.27734375 C44.99605469 19.13005859 44.99605469 19.13005859 45 20 C44.01 20 43.02 20 42 20 C41.67 19.67 41.34 19.34 41 19 C38.67182036 18.63239269 36.3381615 18.29758419 34 18 C34.66 17.34 35.32 16.68 36 16 C30.0328435 6.94638324 19.45226936 5.69992023 9.4831543 3.39404297 C6.05945854 2.59080264 3.10164996 1.64032427 0 0 Z " fill="#6ABBD6" transform="translate(92,3)"/>
<path d="M0 0 C0.66 0.33 1.32 0.66 2 1 C1.154375 1.721875 0.30875 2.44375 -0.5625 3.1875 C-3.28847551 5.6948678 -3.28847551 5.6948678 -2.9375 8.5 C-2.29360746 10.21704677 -1.62553101 11.92515867 -0.9375 13.625 C0 16 0 16 0 19 C-0.99 18.67 -1.98 18.34 -3 18 C-3 17.34 -3 16.68 -3 16 C-4.98 16 -6.96 16 -9 16 C-9 17.32 -9 18.64 -9 20 C-13.95 20 -18.9 20 -24 20 C-24.33 18.35 -24.66 16.7 -25 15 C-24.67 15.99 -24.34 16.98 -24 18 C-19.99745544 18.09181134 -19.99745544 18.09181134 -16 18 C-14.70366379 16.93354885 -14.70366379 16.93354885 -14.9375 14.4375 C-14.958125 13.633125 -14.97875 12.82875 -15 12 C-16.98 11.01 -18.96 10.02 -21 9 C-21 8.01 -21 7.02 -21 6 C-19.02 6 -17.04 6 -15 6 C-15.33 5.34 -15.66 4.68 -16 4 C-18.41645782 3.83312552 -18.41645782 3.83312552 -21 4 C-23.35953094 6.35953094 -23.49141413 7.77895617 -24 11 C-24.66 9.68 -25.32 8.36 -26 7 C-24.4375 4.5 -24.4375 4.5 -22 2 C-18.55602925 1.64372716 -16.12860495 1.43569752 -13 3 C-13.33 4.65 -13.66 6.3 -14 8 C-15.32 8 -16.64 8 -18 8 C-16.02 8.99 -14.04 9.98 -12 11 C-10.68 8.03 -9.36 5.06 -8 2 C-7.236875 2.226875 -6.47375 2.45375 -5.6875 2.6875 C-4.800625 2.790625 -3.91375 2.89375 -3 3 C-1.1645201 1.66621425 -1.1645201 1.66621425 0 0 Z " fill="#3C264F" transform="translate(55,17)"/>
<path d="M0 0 C3.375 1.0625 3.375 1.0625 5.3125 2.75 C6.7363395 5.8489448 6.92653827 7.68432812 6.375 11.0625 C4.3125 14 4.3125 14 1.375 16.0625 C-2.16861243 16.0625 -4.49091591 15.72100044 -7.5625 13.9375 C-9.32437187 10.82831435 -9.10659369 8.55405423 -8.625 5.0625 C-5.94590469 1.1656341 -4.7824172 0.08245547 0 0 Z " fill="#EAE6E5" transform="translate(22.625,19.9375)"/>
<path d="M0 0 C1.91015625 0.375 1.91015625 0.375 4.47265625 1.875 C6.30390412 5.05977891 6.18337724 6.98482999 5.515625 10.53515625 C4.91015625 12.375 4.91015625 12.375 3.22265625 14.375 C0.08585504 15.73145458 -1.70405607 15.99687937 -5.08984375 15.375 C-8.01094433 12.64440598 -9.80567523 10.70111977 -10.65234375 6.75 C-9.26735637 0.90227551 -5.49764649 -0.32883119 0 0 Z " fill="#E9E5E4" transform="translate(131.08984375,20.625)"/>
<path d="M0 0 C3.53233755 1.17744585 3.86308075 1.95605641 5.6875 5.0625 C6.12449219 5.79597656 6.56148437 6.52945312 7.01171875 7.28515625 C7.33785156 7.85105469 7.66398437 8.41695312 8 9 C10.30099489 6.85769441 12.01742088 4.97051851 13.625 2.25 C14.07875 1.5075 14.5325 0.765 15 0 C15.66 0 16.32 0 17 0 C17 4.95 17 9.9 17 15 C16.01 15 15.02 15 14 15 C13.67 13.02 13.34 11.04 13 9 C11.02 11.97 11.02 11.97 9 15 C5.125 11.25 5.125 11.25 4 9 C3.67 10.98 3.34 12.96 3 15 C2.01 15 1.02 15 0 15 C0 10.05 0 5.1 0 0 Z " fill="#E0DCDD" transform="translate(57,21)"/>
<path d="M0 0 C8 0 8 0 10 1.1875 C11.34528636 3.62583152 11.26871933 5.24562689 11 8 C10.79375 8.680625 10.5875 9.36125 10.375 10.0625 C9.87811029 12.6297635 10.67320572 13.81469177 12 16 C10.125 15.8125 10.125 15.8125 8 15 C6.75 12.4375 6.75 12.4375 6 10 C5.01 10 4.02 10 3 10 C3 11.98 3 13.96 3 16 C2.01 16 1.02 16 0 16 C0 10.72 0 5.44 0 0 Z " fill="#CCC7CD" transform="translate(139,20)"/>
<path d="M0 0 C3.3 0 6.6 0 10 0 C10 0.99 10 1.98 10 3 C7.69 3 5.38 3 3 3 C3 4.65 3 6.3 3 8 C4.98 8 6.96 8 9 8 C9 8.66 9 9.32 9 10 C7.02 10 5.04 10 3 10 C3 10.99 3 11.98 3 13 C5.31 13 7.62 13 10 13 C10 13.99 10 14.98 10 16 C6.7 16 3.4 16 0 16 C0 10.72 0 5.44 0 0 Z " fill="#DBD7D9" transform="translate(153,20)"/>
<path d="M0 0 C1.98 0.99 1.98 0.99 4 2 C4.33 1.34 4.66 0.68 5 0 C9.29 0 13.58 0 18 0 C18 1.98 18 3.96 18 6 C17.67 6.33 17.34 6.66 17 7 C16.95919217 8.99958364 16.95745644 11.00045254 17 13 C16.34 11.68 15.68 10.36 15 9 C13.02 9 11.04 9 9 9 C9 7.35 9 5.7 9 4 C11.31 4 13.62 4 16 4 C16 3.01 16 2.02 16 1 C12.7 1 9.4 1 6 1 C6 2.32 6 3.64 6 5 C5.34 5 4.68 5 4 5 C4.33 5.99 4.66 6.98 5 8 C5.03954234 10.33299825 5.04401732 12.66708189 5 15 C4.01 15.495 4.01 15.495 3 16 C0.4424501 12.16367515 1.14343175 10.58876764 1.90625 6.25390625 C2.01657527 3.60150285 1.35157063 2.24749813 0 0 Z " fill="#463D64" transform="translate(147,19)"/>
<path d="M0 0 C0.66 0 1.32 0 2 0 C2.83986084 1.93467942 3.67168027 3.87285129 4.5 5.8125 C4.9640625 6.89144531 5.428125 7.97039063 5.90625 9.08203125 C7 12 7 12 7 15 C6.01 14.67 5.02 14.34 4 14 C4 13.34 4 12.68 4 12 C2.02 12 0.04 12 -2 12 C-2 12.99 -2 13.98 -2 15 C-3.32 14.67 -4.64 14.34 -6 14 C-4.02 9.38 -2.04 4.76 0 0 Z " fill="#D8D3D6" transform="translate(48,21)"/>
<path d="M0 0 C0.66 0 1.32 0 2 0 C2.83986084 1.93467942 3.67168027 3.87285129 4.5 5.8125 C4.9640625 6.89144531 5.428125 7.97039063 5.90625 9.08203125 C7 12 7 12 7 15 C6.01 14.67 5.02 14.34 4 14 C4 13.34 4 12.68 4 12 C2.02 12 0.04 12 -2 12 C-2.33 12.99 -2.66 13.98 -3 15 C-3.66 15 -4.32 15 -5 15 C-4.43174347 9.45949887 -2.37113483 4.96284034 0 0 Z " fill="#E8E4E3" transform="translate(81,21)"/>
<path d="M0 0 C-3.05178567 1.01726189 -5.00554102 1.0891487 -8.19140625 1.02734375 C-9.21943359 1.01509766 -10.24746094 1.00285156 -11.30664062 0.99023438 C-13.44994463 0.95551979 -15.59318488 0.91656917 -17.73632812 0.87304688 C-26.96988026 0.77548915 -35.20344591 2.32278789 -44 5 C-34.72917371 -6.88478107 -12.07836264 -3.65615302 0 0 Z " fill="#B14756" transform="translate(108,7)"/>
<path d="M0 0 C0.78375 0.04125 1.5675 0.0825 2.375 0.125 C2.705 1.115 3.035 2.105 3.375 3.125 C1.395 3.125 -0.585 3.125 -2.625 3.125 C-2.625 4.115 -2.625 5.105 -2.625 6.125 C-1.655625 6.434375 -0.68625 6.74375 0.3125 7.0625 C3.375 8.125 3.375 8.125 4.375 9.125 C4.5625 11.5625 4.5625 11.5625 4.375 14.125 C2.375 16.125 2.375 16.125 -0.625 16.3125 C-3.625 16.125 -3.625 16.125 -5.625 15.125 C-5.625 14.135 -5.625 13.145 -5.625 12.125 C-3.315 12.455 -1.005 12.785 1.375 13.125 C1.375 12.135 1.375 11.145 1.375 10.125 C0.199375 9.691875 0.199375 9.691875 -1 9.25 C-3.625 8.125 -3.625 8.125 -5.625 6.125 C-5.14624715 2.29497721 -4.11851757 0.19611988 0 0 Z " fill="#E9E5E4" transform="translate(36.625,19.875)"/>
<path d="M0 0 C3.125 0.375 3.125 0.375 6 1 C6.625 4.375 6.625 4.375 7 8 C5 10 5 10 2 10.3125 C1.01 10.209375 0.02 10.10625 -1 10 C-3 7 -3 7 -2.75 4.4375 C-2 2 -2 2 0 0 Z " fill="#432D68" transform="translate(127,23)"/>
<path d="M0 0 C0.78375 0.04125 1.5675 0.0825 2.375 0.125 C2.705 1.115 3.035 2.105 3.375 3.125 C1.395 3.125 -0.585 3.125 -2.625 3.125 C-2.625 4.115 -2.625 5.105 -2.625 6.125 C-1.655625 6.434375 -0.68625 6.74375 0.3125 7.0625 C3.375 8.125 3.375 8.125 4.375 9.125 C4.5625 11.5625 4.5625 11.5625 4.375 14.125 C2.375 16.125 2.375 16.125 -0.75 16.25 C-2.173125 16.188125 -2.173125 16.188125 -3.625 16.125 C-3.955 15.135 -4.285 14.145 -4.625 13.125 C-2.645 13.125 -0.665 13.125 1.375 13.125 C1.375 12.135 1.375 11.145 1.375 10.125 C0.199375 9.691875 0.199375 9.691875 -1 9.25 C-3.625 8.125 -3.625 8.125 -5.625 6.125 C-5.14624715 2.29497721 -4.11851757 0.19611988 0 0 Z " fill="#E5E0E0" transform="translate(102.625,19.875)"/>
<path d="M0 0 C4.29 0 8.58 0 13 0 C13 0.99 13 1.98 13 3 C11.35 3 9.7 3 8 3 C8 7.29 8 11.58 8 16 C7.01 16 6.02 16 5 16 C5 11.71 5 7.42 5 3 C3.35 3 1.7 3 0 3 C0 2.01 0 1.02 0 0 Z " fill="#D7D2D5" transform="translate(108,20)"/>
<path d="M0 0 C5.56818182 0.56818182 5.56818182 0.56818182 7 2 C7.1875 4.9375 7.1875 4.9375 7 8 C5 10 5 10 2.5 10.25 C0 10 0 10 -2 8 C-2.25 5 -2.25 5 -2 2 C-1.34 1.34 -0.68 0.68 0 0 Z " fill="#3F365F" transform="translate(19,23)"/>
<path d="M0 0 C0.66 0 1.32 0 2 0 C2 3.96 2 7.92 2 12 C5.3 12 8.6 12 12 12 C12 11.01 12 10.02 12 9 C9.69 9 7.38 9 5 9 C5 8.01 5 7.02 5 6 C7.31 6 9.62 6 12 6 C12 6.66 12 7.32 12 8 C12.66 8 13.32 8 14 8 C14 9.65 14 11.3 14 13 C8.06 13 2.12 13 -4 13 C-3.67 12.34 -3.34 11.68 -3 11 C-2.01 11.33 -1.02 11.66 0 12 C0 8.04 0 4.08 0 0 Z " fill="#261C4B" transform="translate(151,24)"/>
<path d="M0 0 C3.48624056 0.6456001 6.12498789 1.92360237 9 4 C9 4.99 9 5.98 9 7 C6.36 6.67 3.72 6.34 1 6 C0.67 7.32 0.34 8.64 0 10 C-0.95024979 6.30458414 -0.95024979 3.69541586 0 0 Z " fill="#5A5274" transform="translate(29,26)"/>
<path d="M0 0 C1.2065625 0.0309375 1.2065625 0.0309375 2.4375 0.0625 C2.81968767 1.71864657 3.15145102 3.38707024 3.4375 5.0625 C2.4375 6.0625 2.4375 6.0625 -0.125 6.125 C-1.3315625 6.0940625 -1.3315625 6.0940625 -2.5625 6.0625 C-2.94468767 4.40635343 -3.27645102 2.73792976 -3.5625 1.0625 C-2.5625 0.0625 -2.5625 0.0625 0 0 Z " fill="#EFEBE9" transform="translate(21.5625,24.9375)"/>
<path d="M0 0 C0.99 0.66 1.98 1.32 3 2 C0.75944862 3.53663484 -1.49062273 5.05400704 -3.75 6.5625 C-4.38421875 7.00013672 -5.0184375 7.43777344 -5.671875 7.88867188 C-10.50498766 11.08557452 -10.50498766 11.08557452 -13.21582031 10.61694336 C-13.80459961 10.41335205 -14.39337891 10.20976074 -15 10 C-14.16855469 9.52949219 -13.33710937 9.05898438 -12.48046875 8.57421875 C-11.39378906 7.95160156 -10.30710937 7.32898437 -9.1875 6.6875 C-8.10855469 6.07261719 -7.02960938 5.45773438 -5.91796875 4.82421875 C-3.55359169 3.34608744 -1.81952282 2.07489444 0 0 Z " fill="#863FB6" transform="translate(122,35)"/>
<path d="M0 0 C6.0546875 -0.1953125 6.0546875 -0.1953125 8 0 C10 2 10 2 10.125 4.625 C10.08375 5.40875 10.0425 6.1925 10 7 C9.608125 6.360625 9.21625 5.72125 8.8125 5.0625 C6.61527704 2.56221181 5.24208567 2.35049575 2 2 C2 3.65 2 5.3 2 7 C1.34 7 0.68 7 0 7 C0 4.69 0 2.38 0 0 Z " fill="#F3EFEC" transform="translate(140,21)"/>
<path d="M0 0 C0.103125 0.61875 0.20625 1.2375 0.3125 1.875 C0.87525373 4.36526484 0.87525373 4.36526484 4 6 C-0.95 6 -5.9 6 -11 6 C-11.33 4.35 -11.66 2.7 -12 1 C-11.67 1.99 -11.34 2.98 -11 4 C-6.97869285 4.27635161 -6.97869285 4.27635161 -3 4 C-0.94729537 2.15811388 -0.94729537 2.15811388 0 0 Z " fill="#2B214C" transform="translate(42,31)"/>
<path d="M0 0 C0.66 0.33 1.32 0.66 2 1 C2.21931821 4.21666704 2.26828383 6.43362303 0.875 9.375 C-1 11 -1 11 -4.1875 11.25 C-5.115625 11.1675 -6.04375 11.085 -7 11 C-2.25 7 -2.25 7 0 7 C0 4.69 0 2.38 0 0 Z " fill="#F2EEEB" transform="translate(27,24)"/>
<path d="M0 0 C2.125 0.375 2.125 0.375 4 1 C3.34 1.66 2.68 2.32 2 3 C1.83312552 5.58354218 1.83312552 5.58354218 2 8 C1.01 8.33 0.02 8.66 -1 9 C-1.625 5.625 -1.625 5.625 -2 2 C-1.34 1.34 -0.68 0.68 0 0 Z " fill="#D9D5D8" transform="translate(123,23)"/>
<path d="M0 0 C0.66 0 1.32 0 2 0 C2.33 1.98 2.66 3.96 3 6 C1.35 6.66 -0.3 7.32 -2 8 C-1.125 2.25 -1.125 2.25 0 0 Z " fill="#E2DEDE" transform="translate(48,21)"/>
<path d="M0 0 C1.98 0.495 1.98 0.495 4 1 C4 2.65 4 4.3 4 6 C2.35 6 0.7 6 -1 6 C-0.67 4.02 -0.34 2.04 0 0 Z " fill="#8940BC" transform="translate(128,25)"/>
<path d="M0 0 C3.375 0.3125 3.375 0.3125 7 1 C9.56687367 4.8503105 8.83288724 6.58569763 8 11 C7.67 11 7.34 11 7 11 C6.95875 10.0925 6.9175 9.185 6.875 8.25 C6.28138945 4.72043776 6.28138945 4.72043776 2.9375 2.6875 C1.968125 2.130625 0.99875 1.57375 0 1 C0 0.67 0 0.34 0 0 Z " fill="#CEC9CF" transform="translate(19,20)"/>
<path d="M0 0 C2.4294516 3.6441774 2.16179575 5.71241272 2 10 C1.01 10.495 1.01 10.495 0 11 C-2 8 -2 8 -1.6875 6.0625 C-1.460625 5.381875 -1.23375 4.70125 -1 4 C-0.814375 3.2575 -0.62875 2.515 -0.4375 1.75 C-0.293125 1.1725 -0.14875 0.595 0 0 Z " fill="#716A86" transform="translate(150,24)"/>
<path d="M0 0 C1.65 0 3.3 0 5 0 C5 1.32 5 2.64 5 4 C3.35 4.33 1.7 4.66 0 5 C0 3.35 0 1.7 0 0 Z " fill="#554D70" transform="translate(142,23)"/>
<path d="M0 0 C0.33 0.66 0.66 1.32 1 2 C1.99 2 2.98 2 4 2 C4.33 3.32 4.66 4.64 5 6 C3.824375 5.9690625 3.824375 5.9690625 2.625 5.9375 C0.01885039 5.81315937 0.01885039 5.81315937 -2 7 C-1.34 4.69 -0.68 2.38 0 0 Z " fill="#9791A4" transform="translate(79,25)"/>
<path d="M0 0 C0.78375 0.04125 1.5675 0.0825 2.375 0.125 C2.705 1.115 3.035 2.105 3.375 3.125 C2.26125 3.24875 1.1475 3.3725 0 3.5 C-3.65603677 3.7715813 -3.65603677 3.7715813 -5.625 6.125 C-4.86443086 2.32215429 -4.27658992 0.20364714 0 0 Z " fill="#CECACF" transform="translate(102.625,19.875)"/>
<path d="M0 0 C0.78375 0.04125 1.5675 0.0825 2.375 0.125 C2.705 1.115 3.035 2.105 3.375 3.125 C2.26125 3.24875 1.1475 3.3725 0 3.5 C-3.65603677 3.7715813 -3.65603677 3.7715813 -5.625 6.125 C-4.86443086 2.32215429 -4.27658992 0.20364714 0 0 Z " fill="#D0CBD0" transform="translate(36.625,19.875)"/>
<path d="M0 0 C-0.99 0.66 -1.98 1.32 -3 2 C-4.32 1.67 -5.64 1.34 -7 1 C-7 4.96 -7 8.92 -7 13 C-7.33 13 -7.66 13 -8 13 C-8 8.71 -8 4.42 -8 0 C-3 -1 -3 -1 0 0 Z " fill="#2A204E" transform="translate(124,23)"/>
<path d="M0 0 C0.94875 0.04125 1.8975 0.0825 2.875 0.125 C2.070625 0.681875 1.26625 1.23875 0.4375 1.8125 C-2.36728216 4.34364487 -2.81881595 5.45079134 -3.125 9.125 C-3.455 9.125 -3.785 9.125 -4.125 9.125 C-4.75 5.75 -4.75 5.75 -5.125 2.125 C-3.125 0.125 -3.125 0.125 0 0 Z " fill="#DCD8DA" transform="translate(20.125,20.875)"/>
<path d="M0 0 C2 1.8125 2 1.8125 4 4 C4 4.99 4 5.98 4 7 C3.01 6.67 2.02 6.34 1 6 C0.67 5.34 0.34 4.68 0 4 C-2.01669827 2.86649466 -2.01669827 2.86649466 -4 2 C-2.68 2 -1.36 2 0 2 C0 1.34 0 0.68 0 0 Z " fill="#E8E3E3" transform="translate(51,29)"/>
<path d="M0 0 C0.66 0 1.32 0 2 0 C2.99 2.31 3.98 4.62 5 7 C3.125 6.8125 3.125 6.8125 1 6 C-0.25 3.4375 -0.25 3.4375 -1 1 C-0.67 0.67 -0.34 0.34 0 0 Z " fill="#D6D2D5" transform="translate(146,29)"/>
<path d="M0 0 C0.66 0 1.32 0 2 0 C1.25 4.75 1.25 4.75 -1 7 C-1.625 4.625 -1.625 4.625 -2 2 C-1.34 1.34 -0.68 0.68 0 0 Z " fill="#1D1044" transform="translate(126,24)"/>
<path d="M0 0 C2.875 0.3125 2.875 0.3125 6 1 C6.66 1.99 7.32 2.98 8 4 C2.25 4.125 2.25 4.125 0 3 C0 2.01 0 1.02 0 0 Z " fill="#C4C0C8" transform="translate(31,32)"/>
<path d="M0 0 C0.66 1.32 1.32 2.64 2 4 C0.02 4.33 -1.96 4.66 -4 5 C-3 2 -3 2 0 0 Z " fill="#8D869C" transform="translate(51,26)"/>
<path d="M0 0 C-0.66 0.66 -1.32 1.32 -2 2 C-2.66 1.34 -3.32 0.68 -4 0 C-6.32275177 -0.40047444 -8.65739357 -0.7397104 -11 -1 C-11 -1.33 -11 -1.66 -11 -2 C-6.17200184 -3.2350693 -4.02892196 -2.96244261 0 0 Z " fill="#626080" transform="translate(137,22)"/>
</svg>
